<?xml version="1.0" encoding="utf-8"?>
<!-- Generator: Adobe Illustrator 18.0.0, SVG Export Plug-In . SVG Version: 6.00 Build 0)  -->
<!DOCTYPE svg PUBLIC "-//W3C//DTD SVG 1.1//EN" "http://www.w3.org/Graphics/SVG/1.1/DTD/svg11.dtd">
<svg version="1.1" id="Layer_1" xmlns="http://www.w3.org/2000/svg" xmlns:xlink="http://www.w3.org/1999/xlink" x="0px" y="0px"
	 viewBox="0 0 218.6 462.7" enable-background="new 0 0 218.6 462.7" xml:space="preserve">
<rect x="0" y="0" fill="#D62724" width="218.6" height="462.7"/>
<polygon fill="#FFFFFF" points="67.3,97.1 67.3,122.8 43.4,122.8 43.4,134.2 102,134.2 102,122.8 76.1,122.8 76.1,97.1 102,97.1 
	102,85.7 43.4,85.7 43.4,97.1 "/>
<polygon fill="#FFFFFF" points="116.5,76.6 125.2,76.6 125.2,51.1 175,51.1 175,39.7 116.5,39.7 "/>
<rect x="116.5" y="85.7" fill="#FFFFFF" width="58.5" height="11.4"/>
<path fill="#FFFFFF" d="M94.2,172.8c0,3.7-1.1,6.9-2.2,9.5c-1.1,2.6-2.3,4.4-2.8,5.2l7.4,5.2c0.8-0.7,6.6-8.5,6.6-20.5
	c0-13.7-7.3-21.9-17.9-21.9c-10.9,0-14.5,8.7-18.2,17.6c-2.8,6.7-4.6,11.6-9.2,11.6c-4.2,0-7-4.5-7-10.5c0-4.1,1.6-8.3,3.8-11.6
	c0.4-0.7,0.6-1.1,0.9-1.4l-7-5.2c-0.5,0.5-6.4,7.2-6.4,19c0,12.3,6.9,20.9,16.9,20.9c7.5,0,11.9-5.1,15-11.7c1.4-3,2.5-6,3.8-9
	c1.5-3.8,3.5-8.1,8.1-8.1C90.8,162,94.2,165.7,94.2,172.8"/>
<rect x="43.4" y="207.1" fill="#FFFFFF" width="58.6" height="11.4"/>
<path fill="#FFFFFF" d="M142.1,123.3v4.5c0,2.8,0.2,5.7-0.2,8.1c-0.3,2.4-1,4.6-2.4,6.2c-1.7,1.8-3.8,2.4-5.8,2.4
	c-1.9,0-4-0.8-5.4-2.4c-2.6-2.9-3.3-6.1-3.3-12.6v-6.2H142.1z M166.9,123.3v4.8c0,4,0.1,9.6-2.9,12.6c-1.3,1.3-2.8,1.9-5,1.9
	c-2.5,0-4.7-0.5-6-2.1c-2.6-3-2.8-8.3-2.8-12.9v-4.3H166.9z M122.1,151.1c2.6,2.9,6.8,4.8,11.8,4.8c8.3,0,11.7-6.3,12.8-11
	c0.9,2.7,3.6,8.9,12.3,8.9c4.3,0,7.8-1.2,11.1-4.8c4.2-4.6,4.8-10.8,4.8-17.6v-19h-58.5v14.5C116.5,136.9,116.5,145,122.1,151.1"/>
<polygon fill="#FFFFFF" points="102,260.6 102,249.1 52,249.1 52,231.3 43.4,231.3 43.4,278.5 52,278.5 52,260.6 "/>
<rect x="43.4" y="291.3" fill="#FFFFFF" width="58.6" height="11.4"/>
<path fill="#FFFFFF" d="M163.1,253.4l-24.8,8.9v-17.6L163.1,253.4z M130,241.8v23.6l-5,1.9c-2,0.8-5.3,1.6-6.8,3.3
	c-1.2,1.3-1.7,3.1-1.7,6.9v4.8l58.5-22.8V248l-58.5-22.8V237L130,241.8z"/>
<path fill="#FFFFFF" d="M51.8,355.3v-4.8c0-2.5-0.1-4.7,0.2-6.7c0.3-1.9,0.9-3.5,2.2-4.9c1.1-1.2,3.6-2.4,6.2-2.4
	c2.4,0,4.8,1.1,6.4,2.9c2.6,2.9,3.1,6.8,3.1,12.1v3.8H51.8z M78.2,355.3v-1.9c0-2.6,0.1-7.2,2.4-9.7c3.1-3.3,17.4-9.6,19.5-11.9
	c1.5-1.7,1.9-3.6,1.9-8.1v-6.5c-4.1,2.7-22.4,13.1-24.7,15.6c-1.7,1.8-2.2,3.4-2.4,5.3c-0.7-3.6-2-6.4-4.2-8.8
	c-2.8-3-6.4-4.3-10.3-4.3c-5,0-9.1,2.2-11.9,5.2c-3.8,4.2-4.6,9.2-4.8,14.8c-0.1,1.9-0.2,4.1-0.2,6.2v15.4H102v-11.4H78.2z"/>
<path fill="#FFFFFF" d="M90.2,393.7c2.6,2.9,3.3,6.1,3.3,12.6v6.2H76.4v-4.5c0-2.8-0.2-5.6,0.2-8.1c0.3-2.4,1-4.6,2.5-6.2
	c1.7-1.8,3.8-2.4,5.8-2.4C86.8,391.3,88.8,392.1,90.2,393.7 M51.6,412.4v-4.8c0-4-0.1-9.6,2.9-12.6c1.3-1.3,2.8-1.9,5-1.9
	c2.5,0,4.7,0.5,6,2.1c2.6,3,2.8,8.3,2.8,12.9v4.3H51.6z M84.5,379.9c-8.3,0-11.7,6.3-12.8,11c-0.9-2.7-3.6-8.9-12.3-8.9
	c-4.3,0-7.8,1.2-11.1,4.8c-4.2,4.6-4.8,10.8-4.8,17.6v19H102v-14.5c0-10.1-0.1-18.2-5.7-24.3C93.7,381.7,89.5,379.9,84.5,379.9"/>
<path fill="#FFFFFF" d="M116.5,355.6v11.1h23.2l35.3,19.8v-7.1c0-4.3-1.5-4.9-5.2-6.9l-20.2-11.1l25.4-14.1v-11.6l-35.3,20H116.5z"
	/>
<path fill="#FFFFFF" d="M166.6,302.4v4.8c0,2.5,0.1,4.7-0.2,6.7c-0.3,1.9-0.9,3.5-2.2,4.9c-1.1,1.2-3.6,2.4-6.2,2.4
	c-2.4,0-4.8-1.1-6.4-2.9c-2.6-2.8-3.1-6.8-3.1-12.1v-3.8H166.6z M140.2,302.4v1.9c0,2.6-0.1,7.2-2.4,9.7
	c-3.1,3.3-17.4,9.6-19.5,11.9c-1.5,1.7-1.9,3.6-1.9,8.1v6.5c4.1-2.7,22.4-13.1,24.7-15.6c1.7-1.8,2.2-3.4,2.5-5.3
	c0.6,3.6,2,6.4,4.2,8.8c2.7,3,6.4,4.3,10.3,4.3c5,0,9.1-2.2,11.9-5.2c3.8-4.2,4.6-9.2,4.8-14.7c0.1-1.9,0.2-4.1,0.2-6.2V291h-58.5
	v11.4H140.2z"/>
<path fill="#FFFFFF" d="M166.6,181.1v4.8c0,2.5,0.1,4.7-0.2,6.7c-0.3,1.9-0.9,3.5-2.2,4.9c-1.1,1.2-3.6,2.4-6.2,2.4
	c-2.4,0-4.8-1.1-6.4-2.9c-2.6-2.8-3.1-6.8-3.1-12.1v-3.8H166.6z M140.2,181.1v1.9c0,2.6-0.1,7.2-2.4,9.7
	c-3.1,3.3-17.4,9.6-19.5,11.9c-1.5,1.7-1.9,3.6-1.9,8.1v6.5c4.1-2.7,22.4-13.1,24.7-15.6c1.7-1.8,2.2-3.4,2.5-5.3
	c0.6,3.6,2,6.4,4.2,8.8c2.7,3,6.4,4.3,10.3,4.3c5,0,9.1-2.2,11.9-5.2c3.8-4.2,4.6-9.2,4.8-14.8c0.1-1.9,0.2-4.1,0.2-6.2v-15.4h-58.5
	v11.4H140.2z"/>
</svg>
