<?xml version="1.0" encoding="UTF-8" standalone="no"?>
<svg
   xmlns:dc="http://purl.org/dc/elements/1.1/"
   xmlns:cc="http://creativecommons.org/ns#"
   xmlns:rdf="http://www.w3.org/1999/02/22-rdf-syntax-ns#"
   xmlns:svg="http://www.w3.org/2000/svg"
   xmlns="http://www.w3.org/2000/svg"
   version="1.0"
   width="3354pt"
   height="900pt"
   viewBox="0 0 3354 900"
   preserveAspectRatio="xMidYMid meet"
   id="svg2">
  <defs
     id="defs23" />
  <metadata
     id="metadata3">
    <rdf:RDF>
      <cc:Work
         rdf:about="An outline of the British Library">
        <dc:format>image/svg+xml</dc:format>
        <dc:type
           rdf:resource="http://purl.org/dc/dcmitype/StillImage" />
        <dc:title></dc:title>
      </cc:Work>
    </rdf:RDF>
  </metadata>
  <path
     style="fill:none;fill-rule:evenodd;stroke:#FFFFFF;stroke-width:4;stroke-linecap:butt;stroke-linejoin:miter;stroke-miterlimit:4;stroke-opacity:1;stroke-dasharray:295.6666564941406;stroke-dashoffset:295.6666564941406"
     d="m 1694.7343,487.18693 c -24.7477,-17.8506 -23.5668,-59.19022 2.0762,-75.65744 24.3594,-18.3483 63.5241,-5.05394 71.6648,24.34175 10.3378,28.70034 -13.9411,62.1796 -44.433,61.27047 -10.5229,0.11085 -21.0301,-3.45937 -29.308,-9.95478 z"
     id="clockface" />
  <path
     style="fill:none;fill-rule:evenodd;stroke:#FFFFFF;stroke-width:3.2;stroke-linecap:butt;stroke-linejoin:miter;stroke-miterlimit:4;stroke-opacity:1;stroke-dasharray:36.728759765625;stroke-dashoffset:36.728759765625"
     d="m 1723.8736,451.7896 0,-36.72877 0,0"
     id="minutehand" />
  <path
     style="fill:none;fill-rule:evenodd;stroke:#ffffff;stroke-width:3.20000005;stroke-linecap:butt;stroke-linejoin:miter;stroke-miterlimit:4;stroke-dasharray:22.67324829;stroke-dashoffset:22.67324829;stroke-opacity:1"
     d="m 1723.9906,449.83317 0,-22.67324"
     id="hourhand" />
  <path
     style="fill:none;fill-rule:evenodd;stroke:#FFFFFF;stroke-width:4;stroke-linecap:butt;stroke-linejoin:miter;stroke-opacity:1;stroke-miterlimit:4;stroke-dasharray:6507.4208984375;stroke-dashoffset:6507.4208984375"
     d="m 0,569.33346 16.905242,4.73348 29.077016,-18.25767 342.838312,60.85887 -7.43831,131.86089 -65.59234,-8.79073 c 0,0 2.02863,8.79073 5.40968,14.87662 3.38105,6.08589 48.6871,96.0218 48.6871,96.0218 l -371.2391194,-51.39196 0,7.43828 515.2717694,70.32584 33.13428,23.66736 10.14315,0 -39.89637,-28.4008 L 377.325,851.31288 326.60927,746.5004 l 948.04603,144.70888 4.0572,-187.31009 50.7157,-55.44919 36.5153,5.40968 135.9182,-146.0613 65.5923,4.73348 21.6387,-24.34356 6.0859,-281.97943 8.7908,-16.22903 1.3524,-70.32581 66.9448,-87.231048 126.4512,16.905242 -2.7049,259.664516 2.7049,18.93387 -3.3811,111.5746 76.4117,5.40968 2.7048,-160.93791 933.1694,128.47984 198.1294,146.7375 -1.3524,185.28146 205.5678,23.66733 145.385,-44.62984"
     id="mainline" />
  <path
     style="fill:none;fill-rule:evenodd;stroke:#FFFFFF;stroke-width:4;stroke-linecap:butt;stroke-linejoin:miter;stroke-miterlimit:4;stroke-opacity:1;stroke-dasharray:2215.789794921875;stroke-dashoffset:2215.789794921875"
     d="M 2012.0379,426.47218 1905.873,307.45927 c 0,0 -4.0572,-4.73346 5.4096,-3.38105 9.467,1.35242 888.5396,119.68912 888.5396,119.68912 l 154.852,116.98428 c 0,0 7.4383,4.73346 -4.0572,3.38104 -11.4956,-1.35242 -938.5791,-117.66048 -938.5791,-117.66048 z"
     id="roofline" />
  <path
     style="fill:none;fill-rule:evenodd;stroke:#FFFFFF;stroke-width:4;stroke-linecap:butt;stroke-linejoin:miter;stroke-opacity:1;stroke-miterlimit:4;stroke-dasharray:91.85005187988281;stroke-dashoffset:91.85005187988281"
     d="m 2168.4214,533.01799 23.4294,2.62984 -0.4782,22.71224 -22.4731,-2.39076 z"
     id="window1" />
  <path
     style="fill:none;fill-rule:evenodd;stroke:#FFFFFF;stroke-width:4;stroke-linecap:butt;stroke-linejoin:miter;stroke-opacity:1;stroke-miterlimit:4;stroke-dasharray:91.62651062011719;stroke-dashoffset:91.62651062011719"
     d="m 2281.7435,542.82012 0.7172,23.42947 22.4732,2.15169 -0.4781,-22.71225 z"
     id="window2" />
  <path
     style="fill:none;fill-rule:evenodd;stroke:#FFFFFF;stroke-width:4;stroke-linecap:butt;stroke-linejoin:miter;stroke-opacity:1;stroke-miterlimit:4;stroke-dasharray:91.2336196899414;stroke-dashoffset:91.2336196899414"
     d="m 2459.8553,565.53236 0,22.95132 22.9513,1.43446 0,-22.23409 z"
     id="window3" />
  <path
     style="fill:none;fill-rule:evenodd;stroke:#FFFFFF;stroke-width:4;stroke-linecap:butt;stroke-linejoin:miter;stroke-opacity:1;stroke-miterlimit:4;stroke-dasharray:91.92975616455078;stroke-dashoffset:91.92975616455078"
     d="m 2567.6786,577.72525 0,23.19039 22.9514,1.43446 0,-22.71224 z"
     id="window4" />
  <path
     style="fill:none;fill-rule:evenodd;stroke:#FFFFFF;stroke-width:4;stroke-linecap:butt;stroke-linejoin:miter;stroke-opacity:1;stroke-miterlimit:4;stroke-dasharray:91.47080993652344;stroke-dashoffset:91.47080993652344"
     d="m 2734.793,599.00303 0,22.95132 22.7122,1.91261 -0.2391,-23.19039 z"
     id="window5" />
  <path
     style="fill:none;fill-rule:evenodd;stroke:#FFFFFF;stroke-width:4;stroke-linecap:butt;stroke-linejoin:miter;stroke-opacity:1;stroke-miterlimit:4;stroke-dasharray:90.06978607177734;stroke-dashoffset:90.06978607177734"
     d="m 2836.8785,611.91315 0,22.71224 22.9513,1.43446 -0.4781,-21.75594 z"
     id="window6" />
  <path
     style="fill:none;fill-rule:evenodd;stroke:#FFFFFF;stroke-width:4;stroke-linecap:butt;stroke-linejoin:miter;stroke-miterlimit:4;stroke-opacity:1;stroke-dasharray:406.3544006347656;stroke-dashoffset:406.3544006347656"
     d="m 1341.6038,902.72184 149.4226,-117.14734 -1.4345,42.07742 -95.6305,75.78712 z"
     id="window7" />
  <path
     style="fill:none;fill-rule:evenodd;stroke:#FFFFFF;stroke-width:4;stroke-linecap:butt;stroke-linejoin:miter;stroke-opacity:1;stroke-miterlimit:4;stroke-dasharray:233.45132446289062;stroke-dashoffset:233.45132446289062"
     d="m 2131.0748,783.01573 0,46.32035 70.3258,5.74776 0,-45.98222 z"
     id="window8" />
  <path
     style="fill:none;fill-rule:evenodd;stroke:#FFFFFF;stroke-width:4;stroke-linecap:butt;stroke-linejoin:miter;stroke-opacity:1;stroke-miterlimit:4;stroke-dasharray:234.85916137695312;stroke-dashoffset:234.85916137695312"
     d="m 2210.1914,790.11593 -0.3382,45.98223 71.3402,6.424 -0.3381,-46.32034 z"
     id="window9" />
  <path
     style="fill:none;fill-rule:evenodd;stroke:#FFFFFF;stroke-width:4;stroke-linecap:butt;stroke-linejoin:miter;stroke-opacity:1;stroke-miterlimit:4;stroke-dasharray:232.93820190429688;stroke-dashoffset:232.93820190429688"
     d="m 2290.1111,797.4363 0.4782,46.1417 69.5712,6.45504 0,-46.61984 z"
     id="window10" />
  <path
     style="fill:none;fill-rule:evenodd;stroke:#FFFFFF;stroke-width:4;stroke-linecap:butt;stroke-linejoin:miter;stroke-opacity:1;stroke-miterlimit:4;stroke-dasharray:234.4281005859375;stroke-dashoffset:234.4281005859375"
     d="m 2369.0063,804.1304 0,46.14176 70.5275,6.69408 0.2391,-46.38072 z"
     id="window11" />
  <path
     style="fill:none;fill-rule:evenodd;stroke:#FFFFFF;stroke-width:4;stroke-linecap:butt;stroke-linejoin:miter;stroke-opacity:1;stroke-miterlimit:4;stroke-dasharray:194.952880859375;stroke-dashoffset:194.952880859375"
     d="m 2448.1406,811.54176 -0.2392,45.42448 65.9851,-28.45 0,-11.7148 z"
     id="window12" />
</svg>
