<?xml version="1.0" standalone="no"?>
<!DOCTYPE svg PUBLIC "-//W3C//DTD SVG 20010904//EN"
 "http://www.w3.org/TR/2001/REC-SVG-20010904/DTD/svg10.dtd">
<svg version="1.0" xmlns="http://www.w3.org/2000/svg"
 width="3354.000000pt" height="1531.000000pt" viewBox="0 0 3354.000000 1531.000000"
 preserveAspectRatio="xMidYMid meet">
<g transform="translate(0.000000,1531.000000) scale(0.100000,-0.100000)">

<circle cx="100" cy="100" r="2" fill="red"/>

<path stroke="#FFFFFF" stroke-width="35" fill="none"
  d="M16713 8688 c-11 -13 -159 -205 -328 -428 -169 -223 -313 -411 -319
-419 -7 -9 -13 -134 -16 -370 l-5 -356 -41 -80 -41 -80 -17 -815 c-9 -448 -19
-873 -21 -945 -2 -71 -7 -285 -10 -475 -3 -190 -8 -399 -11 -465 -6 -117 -7
-120 -41 -165 -19 -25 -39 -44 -43 -43 -5 2 -18 -10 -30 -25 -12 -15 -42 -49
-68 -76 -44 -47 -47 -48 -91 -42 -67 9 -539 46 -581 46 -35 0 -51 -15 -426
-422 -214 -233 -517 -562 -674 -731 l-285 -308 -55 7 c-30 3 -111 15 -180 25
l-125 19 -21 -23 c-24 -24 -287 -315 -405 -447 l-77 -85 -16 -765 c-9 -421
-18 -830 -22 -910 l-6 -145 149 -22 c81 -13 264 -42 407 -65 167 -27 263 -38
271 -32 23 16 225 183 676 557 386 322 466 390 609 516 l72 65 -7 -205 -7
-204 -32 -34 c-17 -18 -58 -54 -92 -80 -34 -25 -139 -107 -235 -182 -96 -74
-186 -144 -200 -155 -15 -10 -113 -86 -218 -169 l-191 -150 9786 -3 c5383 -1
9789 0 9791 1 2 2 2 407 1 899 l-3 895 -695 -224 c-386 -125 -711 -224 -730
-224 -19 0 -406 44 -860 96 -1064 123 -1162 135 -1181 141 -16 4 -16 78 -12
930 l4 925 -28 24 c-63 56 -1923 1425 -1947 1435 -40 15 -245 44 -2961 415
-4661 639 -6319 865 -6345 868 l-25 2 -6 -285 c-3 -157 -7 -515 -8 -796 -1
-396 -4 -514 -13 -522 -8 -6 -36 -7 -78 -1 -100 13 -537 49 -614 50 l-69 2 7
231 c20 681 23 893 14 941 -18 87 -20 291 -9 1055 6 410 14 955 18 1211 l6
466 -59 11 c-128 25 -1136 162 -1192 162 -10 0 -28 -10 -39 -22z m3316 -2798
c531 -71 1322 -177 1756 -235 435 -58 1510 -203 2390 -321 880 -119 2082 -280
2670 -360 589 -79 1079 -148 1090 -153 33 -15 1557 -1165 1569 -1183 6 -10 7
-20 3 -24 -9 -9 127 -26 -2342 286 -258 33 -848 107 -1310 165 -831 104 -1547
195 -2380 300 -236 30 -698 88 -1025 129 -327 42 -881 112 -1230 156 -349 44
-750 95 -890 112 -218 28 -258 35 -275 53 -50 50 -1040 1158 -1043 1166 -7 19
8 39 29 39 11 0 456 -58 988 -130z


m-2584 -1035 c76 -37 149 -110 183 -183 23
-49 27 -70 27 -152 0 -88 -3 -101 -33 -162 -38 -77 -97 -134 -181 -175 -50
-25 -67 -28 -161 -28 -96 0 -110 3 -165 29 -130 64 -207 180 -213 321 -6 133
47 240 158 318 77 53 128 67 236 64 76 -2 99 -7 149 -32z m4403 -1171 l82 -7
0 -116 0 -117 -112 12 c-62 7 -114 13 -115 13 -2 1 -3 53 -3 117 l0 116 33 -5
c17 -4 69 -9 115 -13z m1125 -100 l87 -6 0 -117 0 -116 -112 10 -113 10 -3
118 -3 119 28 -6 c15 -3 67 -8 116 -12z m1775 -220 l92 -7 0 -119 c0 -97 -3
-119 -13 -115 -8 3 -60 8 -115 12 l-102 8 0 119 c0 120 0 120 23 115 12 -3 64
-9 115 -13z m1070 -119 l102 -8 0 -119 c0 -109 -2 -119 -17 -114 -10 2 -62 8
-115 12 l-98 6 0 120 c0 97 3 119 13 115 8 -3 60 -8 115 -12z m1770 -339 l3
-118 -23 5 c-13 3 -65 9 -115 13 l-93 7 0 116 0 117 113 -11 112 -10 3 -119z
m1020 -15 c1 -1 2 -53 2 -117 l0 -116 -32 5 c-18 4 -70 9 -115 13 l-83 7 0
116 0 117 113 -12 c61 -7 113 -13 115 -13z


m-6933 -1716 c160 -14 305 -28 323
-31 l32 -5 0 -229 0 -230 -27 0 c-33 0 -578 47 -640 56 l-43 5 0 230 0 229 33
0 c17 0 163 -11 322 -25z m1153 -105 c1 0 2 -105 2 -234 l0 -235 -32 5 c-18 2
-166 15 -328 29 -162 14 -310 28 -327 31 l-33 5 0 232 0 233 358 -33 c196 -18
358 -32 360 -33z m424 -35 c156 -14 302 -27 326 -30 l42 -6 0 -234 0 -235 -57
6 c-32 3 -191 18 -353 33 l-295 26 -3 233 -2 232 29 0 c16 0 157 -11 313 -25z
m798 -70 c162 -14 310 -28 328 -31 l32 -5 0 -236 0 -236 -37 6 c-21 3 -181 18
-355 33 l-318 28 0 233 0 233 28 0 c15 0 160 -11 322 -25z m793 -72 l307 -26
0 -61 0 -61 -73 -29 c-39 -16 -108 -46 -152 -67 -44 -21 -160 -71 -257 -112
l-178 -75 0 229 0 229 23 0 c12 0 160 -12 330 -27z"/>
<path stroke="#FFFFFF" stroke-width="35" fill="none"
  d="M320 3380 c-126 -87 -132 -89 -240 -65 -36 8 -68 14 -72 15 -5 0 -8
-517 -8 -1148 l0 -1149 118 -16 c64 -9 162 -21 217 -28 55 -6 564 -76 1130
-155 1927 -270 2238 -313 2242 -309 2 1 -114 239 -257 529 -143 291 -260 534
-260 542 0 31 36 34 172 14 73 -11 209 -31 302 -45 93 -14 170 -24 172 -23 8
8 47 734 60 1119 l7 197 -54 11 c-214 42 -3370 591 -3401 591 -7 0 -65 -36
-128 -80z"/>
<path stroke="#FFFFFF" stroke-width="30" fill="none"
  d="M3280 1545 c0 -8 27 -70 59 -137 77 -161 452 -922 455 -925 2 -2 302
-46 667 -98 365 -52 673 -97 684 -99 11 -3 97 -68 190 -145 l170 -140 3960 1
c2178 0 3949 3 3935 5 -14 3 -956 148 -2095 323 -1138 176 -3401 524 -5027
775 -1626 250 -2966 455 -2978 455 -11 0 -20 -7 -20 -15z"/>
<path stroke="#FFFFFF" stroke-width="30" fill="none"
  d="M0 485 l0 -485 2732 0 c2358 0 2730 2 2718 14 -40 39 -278 230 -295
237 -29 12 -1212 180 -3565 504 -740 102 -1391 192 -1448 200 -56 8 -111 15
-122 15 -20 0 -20 -9 -20 -485z"/>
</g>
</svg>
